# xmcd
#
# Track frame offsets: 
#        150
#        18698
#        39378
#        53748
#        71829
#        87426
#        103933
#        122914
#        143210
#        164631
#        185053
#        205746
#
# Disc length: 2900 seconds
#
# Revision: 0
# Processed by: cddbd v1.5.2PL0 Copyright (c) Steve Scherf et al.
# Submitted via: ExactAudioCopyFreeDBPlugin 1.0
#
DISCID=b70b520c
DTITLE=Sean Taylor - Love Against Death
DYEAR=2012
DGENRE=Blues
TTITLE0=Stand Up
TTITLE1=Kilburn
TTITLE2=Absinthe Moon
TTITLE3=Western Intervention
TTITLE4=Cassady
TTITLE5=Sixteen Tons
TTITLE6=Ballad Of A Happy Man
TTITLE7=Raglan Road
TTITLE8=Heaven
TTITLE9=Coal Not Dole
TTITLE10=Les Fleurs Du Mal
TTITLE11=Hymn
EXTD=
EXTT0=
EXTT1=
EXTT2=
EXTT3=
EXTT4=
EXTT5=
EXTT6=
EXTT7=
EXTT8=
EXTT9=
EXTT10=
EXTT11=
PLAYORDER=
